<svg xmlns="http://www.w3.org/2000/svg" viewBox="0 0 1200 700">
  <defs>
    <linearGradient id="sky" x1="0%" y1="0%" x2="0%" y2="100%">
      <stop offset="0%" stop-color="#87ceeb" />
      <stop offset="60%" stop-color="#fef9e7" />
    </linearGradient>
    <linearGradient id="sunset" x1="0%" y1="0%" x2="100%" y2="0%">
      <stop offset="0%" stop-color="#ffb347" />
      <stop offset="100%" stop-color="#ffcc33" />
    </linearGradient>
    <linearGradient id="walls" x1="0%" y1="0%" x2="0%" y2="100%">
      <stop offset="0%" stop-color="#8d6e63" />
      <stop offset="100%" stop-color="#5d4037" />
    </linearGradient>
    <pattern id="brick" width="40" height="20" patternUnits="userSpaceOnUse">
      <rect width="40" height="20" fill="#6d4c41" />
      <rect x="20" width="20" height="10" fill="#795548" />
      <rect y="10" width="20" height="10" fill="#795548" />
    </pattern>
  </defs>
  <rect width="1200" height="700" fill="url(#sky)" />
  <circle cx="950" cy="120" r="90" fill="url(#sunset)" opacity="0.8" />
  <g transform="translate(0,200)">
    <rect y="300" width="1200" height="200" fill="#3e2723" />
    <path d="M0 320 C200 280 400 340 600 300 C800 260 1000 320 1200 280 L1200 480 L0 480 Z" fill="#4e342e" opacity="0.7" />
  </g>
  <g transform="translate(100,220)">
    <rect width="1000" height="280" fill="url(#walls)" rx="20" />
    <rect x="30" y="40" width="260" height="200" fill="url(#brick)" rx="12" />
    <rect x="360" y="30" width="280" height="220" fill="url(#brick)" rx="12" />
    <rect x="720" y="50" width="260" height="200" fill="url(#brick)" rx="12" />
    <g fill="#212121" opacity="0.8">
      <rect x="90" y="90" width="40" height="80" rx="8" />
      <rect x="430" y="90" width="40" height="110" rx="8" />
      <rect x="790" y="100" width="40" height="90" rx="8" />
    </g>
    <path d="M100 240 Q160 190 220 240" fill="#d7ccc8" />
    <path d="M430 250 Q500 190 570 250" fill="#d7ccc8" />
    <path d="M780 240 Q850 190 920 240" fill="#d7ccc8" />
    <g stroke="#fdd835" stroke-width="4" fill="none">
      <path d="M130 40 L160 10 L190 40" />
      <path d="M470 30 L500 0 L530 30" />
      <path d="M830 60 L860 30 L890 60" />
    </g>
  </g>
  <text x="100" y="120" font-family="'Poppins', sans-serif" font-size="64" fill="#1b323a" font-weight="700">Intramuros</text>
  <text x="105" y="170" font-family="'Source Sans Pro', sans-serif" font-size="28" fill="#1b323a">The Walled City of Manila</text>
</svg>
