<svg xmlns="http://www.w3.org/2000/svg" viewBox="0 0 900 600">
  <defs>
    <linearGradient id="grass" x1="0%" y1="0%" x2="0%" y2="100%">
      <stop offset="0%" stop-color="#9ccc65" />
      <stop offset="100%" stop-color="#558b2f" />
    </linearGradient>
    <linearGradient id="skyline" x1="0%" y1="0%" x2="100%" y2="0%">
      <stop offset="0%" stop-color="#26c6da" />
      <stop offset="100%" stop-color="#1e88e5" />
    </linearGradient>
  </defs>
  <rect width="900" height="600" fill="#f0f9ff" />
  <rect y="220" width="900" height="380" fill="url(#grass)" />
  <g fill="url(#skyline)">
    <rect x="80" y="160" width="120" height="120" rx="16" />
    <rect x="230" y="140" width="110" height="140" rx="16" />
    <rect x="370" y="120" width="140" height="160" rx="16" />
    <rect x="540" y="150" width="110" height="130" rx="16" />
    <rect x="680" y="170" width="120" height="110" rx="16" />
  </g>
  <g>
    <path d="M120 320 C200 260 320 260 400 320 C480 380 620 380 700 320" stroke="#fbc02d" stroke-width="16" fill="none" stroke-linecap="round" />
    <circle cx="200" cy="360" r="28" fill="#ffe082" />
    <circle cx="320" cy="340" r="22" fill="#ffe082" />
    <circle cx="460" cy="360" r="26" fill="#ffe082" />
    <circle cx="600" cy="350" r="20" fill="#ffe082" />
  </g>
  <g fill="#795548">
    <rect x="170" y="380" width="30" height="110" rx="8" />
    <rect x="310" y="360" width="30" height="130" rx="8" />
    <rect x="450" y="380" width="30" height="110" rx="8" />
    <rect x="590" y="370" width="30" height="120" rx="8" />
  </g>
  <g fill="#66bb6a" opacity="0.85">
    <circle cx="185" cy="360" r="50" />
    <circle cx="325" cy="340" r="45" />
    <circle cx="465" cy="360" r="48" />
    <circle cx="605" cy="350" r="42" />
  </g>
  <g>
    <circle cx="120" cy="90" r="36" fill="#ffeb3b" opacity="0.75" />
    <circle cx="720" cy="120" r="18" fill="#fff9c4" opacity="0.7" />
  </g>
  <text x="450" y="550" text-anchor="middle" font-family="'Poppins', sans-serif" font-size="40" fill="#2e7d32">Plaza Moriones Greens</text>
</svg>
