<svg xmlns="http://www.w3.org/2000/svg" viewBox="0 0 700 700">
  <defs>
    <linearGradient id="water" x1="0%" y1="0%" x2="0%" y2="100%">
      <stop offset="0%" stop-color="#64b5f6" />
      <stop offset="100%" stop-color="#1e88e5" />
    </linearGradient>
    <linearGradient id="land" x1="0%" y1="0%" x2="100%" y2="100%">
      <stop offset="0%" stop-color="#c8e6c9" />
      <stop offset="100%" stop-color="#81c784" />
    </linearGradient>
  </defs>
  <rect width="700" height="700" fill="url(#water)" />
  <g transform="translate(60,60)">
    <rect width="580" height="580" rx="120" fill="url(#land)" />
    <path d="M60 400 L160 280 L260 420 L360 220 L460 360 L520 240" fill="none" stroke="#33691e" stroke-width="18" stroke-linecap="round" stroke-linejoin="round" />
    <g fill="#ef6c00">
      <circle cx="160" cy="280" r="22" />
      <circle cx="360" cy="220" r="22" />
      <circle cx="460" cy="360" r="22" />
    </g>
    <g font-family="'Source Sans Pro', sans-serif" font-size="26" fill="#1b5e20">
      <text x="190" y="280">Fort Santiago</text>
      <text x="390" y="220">San Agustin</text>
      <text x="490" y="360">Plaza Moriones</text>
    </g>
    <rect x="120" y="120" width="340" height="200" fill="rgba(255,255,255,0.75)" rx="20" />
    <text x="140" y="170" font-family="'Poppins', sans-serif" font-size="34" fill="#2e7d32" font-weight="600">Intramuros Walking Loop</text>
    <text x="140" y="210" font-family="'Source Sans Pro', sans-serif" font-size="22" fill="#33691e">A compact city-within-a-city bursting</text>
    <text x="140" y="240" font-family="'Source Sans Pro', sans-serif" font-size="22" fill="#33691e">with heritage churches, plazas, and</text>
    <text x="140" y="270" font-family="'Source Sans Pro', sans-serif" font-size="22" fill="#33691e">living stories from 1571 to today.</text>
  </g>
  <circle cx="560" cy="120" r="60" fill="#ff7043" />
  <text x="560" y="130" text-anchor="middle" font-family="'Poppins', sans-serif" font-size="32" fill="#ffffff">You</text>
</svg>
